<?xml version="1.0" encoding="utf-8" ?>
<svg xmlns="http://www.w3.org/2000/svg" xmlns:xlink="http://www.w3.org/1999/xlink"  width="1024" height="1024">
	<path fill="#6675FF" transform="scale(2 2)" d="M397.035 264.687C397.187 264.745 397.284 264.895 397.401 265.007C396.51 283.683 389.166 304.595 380.511 321.02C344.861 388.682 257.898 414.498 190.59 378.887C188.328 377.828 186.109 376.524 183.9 375.352C202.347 369.835 221.887 363.251 239.472 355.468C244.587 359.247 250.432 362.744 256.03 365.775C271.29 357.822 290.628 342.859 302.018 329.522C307.339 323.292 307.739 323.514 314.902 319.559C343.532 303.755 371.75 285.381 397.035 264.687Z"/>
	<path fill="#FFE33E" transform="scale(2 2)" d="M409.664 124.278C437.685 123.863 476.225 133.405 467.194 170.325C457.489 209.998 410.321 247.798 378.069 271.198C328.967 306.822 279.497 333.818 223.013 355.039C189.255 367.722 73.6453 410.989 48.4144 368.086C28.7976 334.729 75.2887 284.562 97.4608 264.785C100.394 262.168 103.187 258.77 106.578 256.799C106.443 261.227 108.79 276.366 108.218 277.448C89.8753 291.919 59.8203 329.438 60.2648 351.94C61.0958 394.007 188.371 350.614 212.517 341.691C283.104 315.61 351.527 277.708 407.107 226.518C423.314 211.59 453.367 182.214 451.99 160.349C450.199 131.906 389.868 142.015 372.612 144.41C368.376 144.998 364.291 146.273 360 146.53C358.012 145.277 345.762 135.292 344.335 133.69C367.227 128.293 386.712 126.404 409.664 124.278Z"/>
	<path fill="#FFE33E" transform="scale(2 2)" d="M256.03 169.976C259.002 169.792 288.84 188.332 293.205 190.822L308.642 199.664C312.229 201.705 316.835 203.688 319.779 206.557C320.896 226.785 316.013 254.036 308.98 272.525C307.108 277.445 300.928 291.601 297.838 294.895C294.782 298.152 257.182 315.686 252.074 317.984C246.924 320.401 241.207 323.572 235.605 324.758C214.714 304.569 200.186 270.421 196.203 242.107C195.356 236.087 192.376 211.144 194.247 205.576C196.657 202.691 207.696 197.521 211.415 195.396L234.59 181.986C241.665 177.985 248.616 173.318 256.03 169.976Z"/>
	<path fill="#6675FF" transform="scale(2 2)" d="M250.891 114.119C317.067 112.929 372.261 152.918 393.2 216.454C394.365 219.988 395.171 223.767 396.819 227.108L397.035 227.539C388.488 234.03 380.793 241.649 372.132 248.037C359.049 257.685 343.185 267.378 330.971 277.448C331.676 274.474 332.885 271.566 333.879 268.675C343.113 241.832 341.663 220.431 342.422 193.523C335.576 188.601 325.972 183.792 318.523 179.452L280.147 156.874C272.115 152.164 263.861 147.659 256.03 142.626C253.366 143.957 250.817 145.769 248.249 147.299L233.802 155.808C219.227 164.511 204.607 173.199 189.82 181.537C183.397 185.268 176.903 188.872 170.503 192.642C170.802 196.88 170.558 201.155 170.514 205.401C170.008 253.945 181.595 297.371 214.19 333.886C193.841 340.355 175.367 348.091 154.026 353.145C68.292 263.644 129.247 119.612 250.891 114.119Z"/>
</svg>
